<svg xmlns="http://www.w3.org/2000/svg" xmlns:xlink="http://www.w3.org/1999/xlink" width="219" height="22" viewBox="0 0 219 22">
    <defs>
        <path id="a" d="M.798.445H41.27v20.74H.798z"/>
    </defs>
    <g fill="none" fill-rule="evenodd">
        <path fill="#FFF" d="M194.125 8.412c0-.789-.284-1.688-1.927-1.688h-2.394v3.313h2.462c1.508 0 1.86-.868 1.86-1.625M192.333 11.534h-2.53v3.768h2.513c1.759 0 2.195-.915 2.195-1.892 0-1.214-.587-1.876-2.178-1.876"/>
        <g transform="translate(177.45 .37)">
            <mask id="b" fill="#fff">
                <use xlink:href="#a"/>
            </mask>
            <path fill="#FFF" d="M32.512 16.556h-6.85v-1.245l4.253-5.092-3.952.014v-1.56h6.365v1.246l-4.255 5.092 4.439-.016v1.561zm-8.714.08s-.168.031-.369.031c-1.524 0-2.21-.693-2.21-2.05V8.673h1.875V14.6c0 .442.167.6.704.6v1.434zM22.156 5.187c.67 0 1.222.52 1.222 1.15 0 .632-.551 1.153-1.222 1.153-.67 0-1.223-.521-1.223-1.153 0-.63.554-1.15 1.223-1.15zm-7.358 11.368h-4.321V4.731h4.221c3.066 0 3.987 1.404 3.987 3.232 0 1.009-.553 1.923-1.508 2.35 1.206.33 1.894 1.419 1.894 2.774 0 1.956-1.023 3.47-4.273 3.47zM30.254.445H11.815C5.74.445.798 5.097.798 10.815c0 5.718 4.942 10.37 11.017 10.37h18.44c6.073 0 11.015-4.652 11.015-10.37 0-5.718-4.942-10.37-11.016-10.37z" mask="url(#b)"/>
        </g>
        <path fill="#FFF" d="M33.642 1.024c-5.967 0-10.802 4.553-10.804 10.169.001 5.617 4.837 10.17 10.804 10.17 5.968 0 10.803-4.553 10.804-10.17-.001-5.616-4.836-10.17-10.804-10.17M66.95 19.358L56.353 2.078a1.022 1.022 0 0 0-.873-.473 1.02 1.02 0 0 0-.872.474L44.01 19.36a.892.892 0 0 0 0 .948c.18.293.51.474.872.474h21.196c.36 0 .694-.18.873-.475a.905.905 0 0 0-.002-.95M20.076 1.882a1.04 1.04 0 0 0-.71-.277H1.009c-.27 0-.521.1-.714.278a.927.927 0 0 0-.294.67v7.693c.001.253.107.49.294.67.193.179.446.277.714.278h4.085v8.64a.928.928 0 0 0 .298.673c.189.177.443.275.71.275h8.171c.269 0 .521-.098.71-.275a.921.921 0 0 0 .298-.673v-8.64h3.828c.526-.001.778-.099.97-.278.191-.18.294-.42.294-.67V2.552c0-.25-.103-.49-.296-.67M110.221 1.882a1.034 1.034 0 0 0-.71-.277H91.152c-.269 0-.522.1-.713.278a.919.919 0 0 0-.294.67v7.693c0 .253.105.49.294.67.191.179.446.277.713.277h4.085v8.64a.935.935 0 0 0 .298.674c.19.177.443.275.71.275h8.173c.267-.001.52-.098.709-.275a.921.921 0 0 0 .298-.673v-8.641h3.827c.526 0 .78-.098.972-.277a.92.92 0 0 0 .294-.67V2.552c-.001-.25-.104-.49-.297-.67M84.3 7.536l2.764-4.509a.89.89 0 0 0 0-.947 1.017 1.017 0 0 0-.871-.475H75.317c-4.127 0-7.477 3.142-7.497 7.023.002 2.675 1.581 5.001 3.91 6.198l-2.78 4.533a.902.902 0 0 0 0 .949c.178.293.51.474.87.474h10.876c4.14-.001 7.496-3.16 7.497-7.058-.001-2.668-1.572-4.989-3.892-6.188M127.976 18.301h-4.105c-2.698 0-4.62-1.984-4.62-4.436V8.523c0-2.452 2.015-4.437 4.62-4.437h3.763c.745 0 1.272-.525 1.272-1.226 0-.7-.527-1.255-1.272-1.255h-3.763c-4.063 0-7.412 3.095-7.412 6.918v5.342c0 3.794 3.257 6.918 7.412 6.918h4.105c.744 0 1.24-.526 1.24-1.226s-.496-1.256-1.24-1.256M167.395 1.313c-1.457 0-2.388.584-2.853 1.78l-4.186 10.859-.682 2.715c-.03.116-.061.234-.061.38 0 .671.588 1.225 1.394 1.225.745 0 1.18-.467 1.334-1.05l.59-2.51 4.061-10.713c.062-.146.156-.205.31-.205.28 0 .435.117.435.38v15.675c0 .7.527 1.225 1.364 1.225.869 0 1.426-.525 1.426-1.225V4.173c0-1.576-1.303-2.86-3.132-2.86M160.295 11.559c0-.176-.032-.35-.093-.526l-3.04-7.94c-.464-1.196-1.395-1.78-2.852-1.78-1.768 0-3.102 1.284-3.102 2.86v15.675c0 .701.527 1.227 1.396 1.227.744 0 1.396-.526 1.396-1.227V4.174c0-.263.124-.38.402-.38.156 0 .28.059.341.205l2.977 7.94c.218.583.714.846 1.24.846.714 0 1.335-.555 1.335-1.226M148.261 19.532l-5.05-16.088c-.403-1.255-1.55-2.16-3.07-2.16-1.52 0-2.668.905-3.07 2.16l-5.051 16.088c-.032.146-.064.262-.064.379-.004.642.582 1.17 1.42 1.175.713.003 1.18-.345 1.339-.899l4.93-16.013c.093-.263.279-.409.496-.409.217 0 .403.146.495.409l2.616 8.494h-3.886c-.745 0-1.21.555-1.21 1.255 0 .7.465 1.226 1.21 1.226h4.65l1.552 5.038c.157.554.625.902 1.339.899.836-.004 1.423-.533 1.419-1.175 0-.117-.033-.233-.065-.379"/>
    </g>
</svg>
