<svg xmlns="http://www.w3.org/2000/svg" width="28" height="28" viewBox="0 0 28 28">
    <g fill="none" fill-rule="evenodd">
        <path d="M0 0h28v28H0z"/>
        <rect width="25" height="25" x="1.5" y="1.5" stroke="#555" rx="2"/>
        <path fill="#555" d="M3 1h22a2 2 0 0 1 2 2v6H1V3a2 2 0 0 1 2-2z"/>
        <path fill="#FFF" fill-rule="nonzero" d="M11.704 7V2.8h-.996L9.604 4.576 8.5 2.8h-.996V7h.906V4.276l1.17 1.776h.024l1.182-1.794V7h.918zm5.1 0l-1.8-4.23h-.852L12.352 7h.942l.384-.942h1.776l.384.942h.966zm-1.68-1.758h-1.116l.558-1.362.558 1.362zM21.172 2.8l-1.614 2.526V7h-.924V5.344L17.02 2.8h1.08l1.002 1.686 1.02-1.686h1.05z"/>
        <path fill="#555" fill-rule="nonzero" d="M10.257 16.648v.864a4.94 4.94 0 0 1 .612-.036c.256 0 .494.034.714.102.22.068.41.172.57.312a1.556 1.556 0 0 1 .528 1.218c0 .256-.05.486-.15.69-.1.204-.234.376-.402.516s-.364.248-.588.324c-.224.076-.46.114-.708.114-.584 0-1.028-.174-1.332-.522-.304-.348-.464-.798-.48-1.35H8c-.008.44.054.832.186 1.176s.322.634.57.87c.248.236.548.414.9.534.352.12.744.18 1.176.18.4 0 .778-.054 1.134-.162.356-.108.666-.27.93-.486.264-.216.474-.486.63-.81.156-.324.234-.698.234-1.122 0-.512-.126-.956-.378-1.332-.252-.376-.638-.62-1.158-.732v-.024c.336-.152.616-.376.84-.672.224-.296.336-.636.336-1.02a2.43 2.43 0 0 0-.198-1.02 1.893 1.893 0 0 0-.546-.708 2.375 2.375 0 0 0-.822-.414A3.657 3.657 0 0 0 10.809 13a2.88 2.88 0 0 0-1.122.204 2.235 2.235 0 0 0-.81.564c-.216.24-.382.528-.498.864a3.872 3.872 0 0 0-.198 1.116H9.2c0-.248.032-.484.096-.708.064-.224.162-.42.294-.588.132-.168.3-.302.504-.402.204-.1.442-.15.714-.15.432 0 .792.114 1.08.342.288.228.432.57.432 1.026 0 .224-.044.424-.132.6a1.269 1.269 0 0 1-.354.438c-.148.116-.32.204-.516.264a2.1 2.1 0 0 1-.618.09h-.336a.556.556 0 0 1-.108-.012zm8.328 4.86h-1.02v-6.096h-2.208v-.816c.288 0 .568-.022.84-.066.272-.044.518-.126.738-.246.22-.12.406-.284.558-.492a1.87 1.87 0 0 0 .312-.792h.78v8.508z"/>
    </g>
</svg>
